<svg xmlns="http://www.w3.org/2000/svg" width="260" height="260" viewBox="0 0 260 260">
  <g id="Grupo_21374" data-name="Grupo 21374" transform="translate(-881 -392)">
    <path id="Trazado_4131" data-name="Trazado 4131" d="M280.662,367.552A130,130,0,0,0,158.217,230.413L154.7,292.564a67.767,67.767,0,0,1,65.739,84.146,31.125,31.125,0,0,0,60.223-9.158Z" transform="translate(856.302 161.687)" opacity="0.2"/>
    <path id="Trazado_4132" data-name="Trazado 4132" d="M154.7,230.318v62.251a67.748,67.748,0,0,1,67.748,67.748,31.126,31.126,0,1,0,62.251,0A130,130,0,0,0,154.7,230.318Z" transform="translate(856.302 161.682)" fill="#26a69a"/>
    <path id="Trazado_4133" data-name="Trazado 4133" d="M168.532,234.161A130,130,0,0,0,31.393,356.606l62.151,3.518a67.768,67.768,0,0,1,84.147-65.739,31.125,31.125,0,0,0-9.159-60.223Z" transform="translate(849.707 161.876)" opacity="0.2"/>
    <path id="Trazado_4134" data-name="Trazado 4134" d="M31.3,360.318H93.549A67.748,67.748,0,0,1,161.3,292.569a31.126,31.126,0,0,0,0-62.251A130,130,0,0,0,31.3,360.318Z" transform="translate(849.702 161.682)" fill="#ffa726"/>
    <path id="Trazado_4135" data-name="Trazado 4135" d="M35.142,348.338A130,130,0,0,0,157.586,485.477l3.519-62.151a67.765,67.765,0,0,1-65.739-84.147,31.125,31.125,0,0,0-60.223,9.159Z" transform="translate(849.896 166.423)" opacity="0.2"/>
    <path id="Trazado_4136" data-name="Trazado 4136" d="M161.3,485.3V423.047A67.749,67.749,0,0,1,93.549,355.3a31.126,31.126,0,0,0-62.251,0A130,130,0,0,0,161.3,485.3Z" transform="translate(849.702 166.701)" fill="#4dd0e1"/>
    <path id="Trazado_4137" data-name="Trazado 4137" d="M187.682,425.973V410.834A67.765,67.765,0,0,1,140.16,416.4a31.125,31.125,0,0,0,9.158,60.223A129.856,129.856,0,0,0,259.81,425.973Z" transform="translate(854.443 171.336)" fill="#00104e" opacity="0.2"/>
    <path id="Trazado_4138" data-name="Trazado 4138" d="M255.154,384.844a31.126,31.126,0,0,1-31.126-31.126,67.748,67.748,0,0,1-67.748,67.749,31.126,31.126,0,1,0,0,62.251,130,130,0,0,0,130-130A31.126,31.126,0,0,1,255.154,384.844Z" transform="translate(854.721 168.282)" fill="#ffca28"/>
    <path id="Trazado_4139" data-name="Trazado 4139" d="M273.258,374.664a31.125,31.125,0,0,1-54.148-20.946c0,1.035-.032,2.061-.078,3.084-.011.232-.019.464-.032.694q-.079,1.413-.214,2.811c-.031.311-.067.621-.1.931q-.117,1.044-.264,2.08-.109.768-.236,1.53c-.1.582-.2,1.162-.311,1.738-.091.471-.183.941-.283,1.407q-.229,1.062-.488,2.113l0,.011a31.124,31.124,0,0,0,56.157,4.548Z" transform="translate(859.639 168.282)" fill="#00104e" opacity="0.2"/>
    <path id="Trazado_4999" data-name="Trazado 4999" d="M-34.576-2.391H-38.8L-39.542,0h-3.3l4.693-12.8h2.9L-30.516,0h-3.313Zm-3.489-2.382h2.751l-1.38-4.438ZM-26.6,0h-2.971V-13.5H-26.6Zm1.477-4.825a6.421,6.421,0,0,1,.475-2.549,3.821,3.821,0,0,1,1.362-1.709,3.591,3.591,0,0,1,2.065-.6,2.855,2.855,0,0,1,2.32,1l.105-.826H-16.1V-.36a4.009,4.009,0,0,1-.584,2.184,3.75,3.75,0,0,1-1.692,1.424,6.219,6.219,0,0,1-2.566.5,5.365,5.365,0,0,1-2.026-.4,3.657,3.657,0,0,1-1.5-1.028L-23.229.58a2.716,2.716,0,0,0,2.18.976A1.764,1.764,0,0,0-19.081-.466v-.3a2.781,2.781,0,0,1-2.153.94,3.437,3.437,0,0,1-2.812-1.332A5.517,5.517,0,0,1-25.119-4.72Zm2.971.185a3.383,3.383,0,0,0,.439,1.85,1.386,1.386,0,0,0,1.23.681,1.573,1.573,0,0,0,1.4-.642v-4a1.534,1.534,0,0,0-1.38-.65,1.4,1.4,0,0,0-1.239.708A3.858,3.858,0,0,0-22.148-4.641Zm7.356-.2a5.613,5.613,0,0,1,.554-2.536,3.96,3.96,0,0,1,1.591-1.709,4.791,4.791,0,0,1,2.435-.6A4.373,4.373,0,0,1-6.847-8.363a5.076,5.076,0,0,1,1.23,3.6v.105A4.925,4.925,0,0,1-6.851-1.129,4.384,4.384,0,0,1-10.2.176a4.434,4.434,0,0,1-3.261-1.217,4.761,4.761,0,0,1-1.327-3.3Zm2.962.185a3.538,3.538,0,0,0,.413,1.934,1.376,1.376,0,0,0,1.222.615q1.582,0,1.617-2.435v-.3q0-2.558-1.635-2.558-1.485,0-1.608,2.206ZM1.441-6.829.466-6.9a1.752,1.752,0,0,0-1.793.879V0H-4.289V-9.51h2.777l.1,1.222a2.294,2.294,0,0,1,2.083-1.4,2.888,2.888,0,0,1,.826.105ZM5.634,0H2.663V-9.51H5.634ZM2.487-11.962A1.322,1.322,0,0,1,2.944-13a1.724,1.724,0,0,1,1.187-.4,1.724,1.724,0,0,1,1.187.4,1.322,1.322,0,0,1,.457,1.037,1.322,1.322,0,0,1-.457,1.037,1.724,1.724,0,0,1-1.187.4,1.724,1.724,0,0,1-1.187-.4A1.322,1.322,0,0,1,2.487-11.962Zm8.42.088V-9.51h1.564v2.057H10.907V-3.1a1.111,1.111,0,0,0,.193.747,1.037,1.037,0,0,0,.765.211A4.345,4.345,0,0,0,12.6-2.2V-.079a5.466,5.466,0,0,1-1.67.255A3.1,3.1,0,0,1,8.675-.545a2.954,2.954,0,0,1-.729-2.188v-4.72H6.732V-9.51H7.945v-2.364ZM16.436-9.51l.1,1.116a3.27,3.27,0,0,1,2.716-1.292,2.407,2.407,0,0,1,2.435,1.433,3.165,3.165,0,0,1,2.795-1.433q2.892,0,2.971,3.5V0H24.478V-6a1.813,1.813,0,0,0-.246-1.063,1.048,1.048,0,0,0-.9-.334,1.4,1.4,0,0,0-1.31.782l.009.123V0H19.063V-5.985a1.906,1.906,0,0,0-.237-1.081,1.045,1.045,0,0,0-.905-.334,1.42,1.42,0,0,0-1.3.782V0H13.658V-9.51ZM32.265,0H29.294V-9.51h2.971ZM29.118-11.962A1.322,1.322,0,0,1,29.575-13a1.724,1.724,0,0,1,1.187-.4,1.724,1.724,0,0,1,1.187.4,1.322,1.322,0,0,1,.457,1.037,1.322,1.322,0,0,1-.457,1.037,1.724,1.724,0,0,1-1.187.4,1.724,1.724,0,0,1-1.187-.4A1.322,1.322,0,0,1,29.118-11.962ZM39.445,0a3.344,3.344,0,0,1-.281-.853A2.754,2.754,0,0,1,36.879.176a3.374,3.374,0,0,1-2.285-.813,2.588,2.588,0,0,1-.94-2.043A2.66,2.66,0,0,1,34.8-5.019a5.821,5.821,0,0,1,3.322-.791h.914v-.5q0-1.316-1.134-1.316a.927.927,0,0,0-1.055,1.042H33.882a2.655,2.655,0,0,1,1.173-2.239,4.931,4.931,0,0,1,2.993-.86,4.323,4.323,0,0,1,2.874.888A3.086,3.086,0,0,1,42-6.363v4.21a4.311,4.311,0,0,0,.4,2V0ZM37.591-1.934a1.652,1.652,0,0,0,.918-.237,1.487,1.487,0,0,0,.523-.536V-4.228h-.861q-1.547,0-1.547,1.389a.848.848,0,0,0,.272.655A.986.986,0,0,0,37.591-1.934ZM-26.152,22V9.2h4.6a6.509,6.509,0,0,1,3.757.905,3.012,3.012,0,0,1,1.288,2.628,3.045,3.045,0,0,1-.457,1.7,2.663,2.663,0,0,1-1.345,1.037,2.7,2.7,0,0,1,1.538.984,2.862,2.862,0,0,1,.536,1.758,3.388,3.388,0,0,1-1.191,2.826A5.667,5.667,0,0,1-20.958,22Zm3.085-5.44v3.067h2.021a1.923,1.923,0,0,0,1.283-.382,1.338,1.338,0,0,0,.448-1.077A1.419,1.419,0,0,0-20.9,16.56Zm0-2.021h1.608a2.285,2.285,0,0,0,1.441-.37,1.314,1.314,0,0,0,.431-1.067,1.379,1.379,0,0,0-.466-1.168,2.493,2.493,0,0,0-1.5-.357h-1.512ZM-9.321,22a3.344,3.344,0,0,1-.281-.853,2.754,2.754,0,0,1-2.285,1.028,3.374,3.374,0,0,1-2.285-.813,2.588,2.588,0,0,1-.94-2.043,2.66,2.66,0,0,1,1.143-2.338,5.821,5.821,0,0,1,3.322-.791h.914v-.5q0-1.316-1.134-1.316a.927.927,0,0,0-1.055,1.042h-2.962a2.655,2.655,0,0,1,1.173-2.239,4.931,4.931,0,0,1,2.993-.86,4.323,4.323,0,0,1,2.874.888,3.086,3.086,0,0,1,1.081,2.435v4.21a4.311,4.311,0,0,0,.4,2V22Zm-1.854-1.934a1.652,1.652,0,0,0,.918-.237,1.487,1.487,0,0,0,.523-.536V17.772H-10.6q-1.547,0-1.547,1.389a.848.848,0,0,0,.272.655A.986.986,0,0,0-11.175,20.066ZM-10.437,8.5h3.129l-2.443,2.76-2.417,0ZM-.145,19.328a.684.684,0,0,0-.4-.606,6.016,6.016,0,0,0-1.5-.475A6.853,6.853,0,0,1-3.872,17.6a3.062,3.062,0,0,1-1.1-.971,2.319,2.319,0,0,1-.378-1.31,2.628,2.628,0,0,1,1.081-2.158,4.453,4.453,0,0,1,2.83-.848,4.934,4.934,0,0,1,3.023.853,2.666,2.666,0,0,1,1.143,2.241H-.242q0-1.143-1.2-1.143a1.194,1.194,0,0,0-.782.259.8.8,0,0,0-.316.646.737.737,0,0,0,.387.642,3.654,3.654,0,0,0,1.235.4,10.671,10.671,0,0,1,1.49.378A2.706,2.706,0,0,1,2.711,19.24a2.491,2.491,0,0,1-1.156,2.118,5.068,5.068,0,0,1-2.993.817,5.172,5.172,0,0,1-2.18-.439,3.645,3.645,0,0,1-1.494-1.2,2.707,2.707,0,0,1-.536-1.591h2.769a1.145,1.145,0,0,0,.439.962,1.808,1.808,0,0,0,1.081.3,1.422,1.422,0,0,0,.91-.246A.787.787,0,0,0-.145,19.328ZM7.22,22H4.25V12.49H7.22ZM4.074,10.038A1.322,1.322,0,0,1,4.531,9a1.724,1.724,0,0,1,1.187-.4A1.724,1.724,0,0,1,6.9,9a1.405,1.405,0,0,1,0,2.074,1.724,1.724,0,0,1-1.187.4,1.724,1.724,0,0,1-1.187-.4A1.322,1.322,0,0,1,4.074,10.038Zm8.991,9.853a1.317,1.317,0,0,0,.967-.338,1.241,1.241,0,0,0,.334-.945h2.777a3.288,3.288,0,0,1-1.121,2.566,4.168,4.168,0,0,1-2.887,1,4.22,4.22,0,0,1-3.27-1.3,5.125,5.125,0,0,1-1.2-3.6v-.123A5.792,5.792,0,0,1,9.2,14.6a3.872,3.872,0,0,1,1.534-1.7,4.573,4.573,0,0,1,2.373-.593,4.116,4.116,0,0,1,2.944,1.028,3.647,3.647,0,0,1,1.09,2.786H14.366A1.626,1.626,0,0,0,14.005,15a1.244,1.244,0,0,0-.967-.4q-1.151,0-1.345,1.468a10.357,10.357,0,0,0-.062,1.283,4.068,4.068,0,0,0,.343,1.986A1.187,1.187,0,0,0,13.065,19.891ZM23.752,22a3.344,3.344,0,0,1-.281-.853,2.754,2.754,0,0,1-2.285,1.028,3.374,3.374,0,0,1-2.285-.813,2.588,2.588,0,0,1-.94-2.043A2.66,2.66,0,0,1,19.1,16.981a5.821,5.821,0,0,1,3.322-.791h.914v-.5q0-1.316-1.134-1.316a.927.927,0,0,0-1.055,1.042H18.189a2.655,2.655,0,0,1,1.173-2.239,4.931,4.931,0,0,1,2.993-.86,4.323,4.323,0,0,1,2.874.888,3.086,3.086,0,0,1,1.081,2.435v4.21a4.311,4.311,0,0,0,.4,2V22ZM21.9,20.066a1.652,1.652,0,0,0,.918-.237,1.487,1.487,0,0,0,.523-.536V17.772h-.861q-1.547,0-1.547,1.389a.848.848,0,0,0,.272.655A.986.986,0,0,0,21.9,20.066Z" transform="translate(1011 520)" fill="#00104e"/>
    <path id="Trazado_4996" data-name="Trazado 4996" d="M-30.546-2.9l2.124-7.764h2.871L-29.139,0h-2.812l-3.56-10.664h2.849ZM-20.76,0a2.787,2.787,0,0,1-.234-.71,2.3,2.3,0,0,1-1.9.857,2.812,2.812,0,0,1-1.9-.677,2.156,2.156,0,0,1-.784-1.7,2.216,2.216,0,0,1,.952-1.948,4.851,4.851,0,0,1,2.769-.659h.762v-.417q0-1.091-.945-1.091a.77.77,0,0,0-.879.864H-25.4a2.216,2.216,0,0,1,.978-1.868,4.106,4.106,0,0,1,2.494-.718,3.6,3.6,0,0,1,2.4.74,2.572,2.572,0,0,1,.9,2.029v3.508a3.593,3.593,0,0,0,.337,1.67V0Zm-1.545-1.611a1.377,1.377,0,0,0,.765-.2,1.239,1.239,0,0,0,.436-.447V-3.523h-.718q-1.289,0-1.289,1.157a.707.707,0,0,0,.227.546A.822.822,0,0,0-22.306-1.611ZM-14.659,0h-2.476V-11.25h2.476Zm4.124,0h-2.476V-7.925h2.476Zm-2.622-9.968a1.1,1.1,0,0,1,.381-.864,1.437,1.437,0,0,1,.989-.337,1.437,1.437,0,0,1,.989.337,1.1,1.1,0,0,1,.381.864A1.1,1.1,0,0,1-10.8-9.1a1.437,1.437,0,0,1-.989.337,1.437,1.437,0,0,1-.989-.337A1.1,1.1,0,0,1-13.158-9.968Zm3.831,5.947a4.841,4.841,0,0,1,.813-2.966A2.676,2.676,0,0,1-6.244-8.071a2.276,2.276,0,0,1,1.787.835V-11.25h2.476V0H-4.2l-.125-.85a2.337,2.337,0,0,1-1.934,1A2.671,2.671,0,0,1-8.5-.937,4.994,4.994,0,0,1-9.327-4.021Zm2.468.154q0,2.109,1.23,2.109a1.215,1.215,0,0,0,1.172-.688V-5.464a1.182,1.182,0,0,0-1.157-.7q-1.143,0-1.238,1.846ZM3.885,0a2.787,2.787,0,0,1-.234-.71,2.3,2.3,0,0,1-1.9.857,2.812,2.812,0,0,1-1.9-.677,2.156,2.156,0,0,1-.784-1.7A2.216,2.216,0,0,1,.011-4.182,4.851,4.851,0,0,1,2.78-4.841h.762v-.417q0-1.091-.945-1.091a.77.77,0,0,0-.879.864H-.751A2.216,2.216,0,0,1,.227-7.354a4.106,4.106,0,0,1,2.494-.718,3.6,3.6,0,0,1,2.4.74,2.572,2.572,0,0,1,.9,2.029v3.508a3.593,3.593,0,0,0,.337,1.67V0ZM2.34-1.611a1.377,1.377,0,0,0,.765-.2,1.239,1.239,0,0,0,.436-.447V-3.523H2.823q-1.289,0-1.289,1.157a.707.707,0,0,0,.227.546A.822.822,0,0,0,2.34-1.611Zm8.394-.146a1.1,1.1,0,0,0,.806-.282,1.034,1.034,0,0,0,.278-.787h2.314A2.74,2.74,0,0,1,13.2-.688a3.474,3.474,0,0,1-2.406.835A3.517,3.517,0,0,1,8.068-.937a4.271,4.271,0,0,1-1-3v-.1a4.827,4.827,0,0,1,.443-2.12A3.226,3.226,0,0,1,8.793-7.577a3.811,3.811,0,0,1,1.978-.494,3.43,3.43,0,0,1,2.454.857,3.039,3.039,0,0,1,.908,2.322H11.818a1.355,1.355,0,0,0-.3-.945,1.037,1.037,0,0,0-.806-.33q-.959,0-1.121,1.223A8.631,8.631,0,0,0,9.54-3.875a3.39,3.39,0,0,0,.286,1.655A.989.989,0,0,0,10.734-1.758ZM17.78,0H15.3V-7.925H17.78ZM15.157-9.968a1.1,1.1,0,0,1,.381-.864,1.437,1.437,0,0,1,.989-.337,1.437,1.437,0,0,1,.989.337,1.1,1.1,0,0,1,.381.864,1.1,1.1,0,0,1-.381.864,1.437,1.437,0,0,1-.989.337,1.437,1.437,0,0,1-.989-.337A1.1,1.1,0,0,1,15.157-9.968Zm3.831,5.933a4.677,4.677,0,0,1,.461-2.113,3.3,3.3,0,0,1,1.326-1.425,3.993,3.993,0,0,1,2.029-.5,3.644,3.644,0,0,1,2.805,1.1,4.23,4.23,0,0,1,1.025,3v.088A4.1,4.1,0,0,1,25.605-.941,3.654,3.654,0,0,1,22.819.146,3.7,3.7,0,0,1,20.1-.868,3.968,3.968,0,0,1,19-3.618Zm2.468.154A2.949,2.949,0,0,0,21.8-2.271a1.147,1.147,0,0,0,1.018.513q1.318,0,1.348-2.029v-.249q0-2.131-1.362-2.131-1.238,0-1.34,1.838Zm1.685-7.368h2.607l-2.036,2.3H21.7Zm6.848,3.325.081.93a2.687,2.687,0,0,1,2.263-1.077,2.261,2.261,0,0,1,1.849.74A3.522,3.522,0,0,1,34.816-5.1V0H32.34V-5a1.337,1.337,0,0,0-.242-.883,1.118,1.118,0,0,0-.879-.282,1.177,1.177,0,0,0-1.077.571V0H27.675V-7.925Z" transform="matrix(0.809, -0.588, 0.588, 0.809, 964.343, 447.759)" fill="#00104e"/>
    <path id="Trazado_4998" data-name="Trazado 4998" d="M-20.149-1.992h-3.523L-24.287,0h-2.747l3.911-10.664h2.417L-16.765,0h-2.761Zm-2.908-1.985h2.292l-1.15-3.7Zm8.87-3.948.081.93a2.687,2.687,0,0,1,2.263-1.077,2.261,2.261,0,0,1,1.849.74A3.522,3.522,0,0,1-9.36-5.1V0h-2.476V-5a1.337,1.337,0,0,0-.242-.883,1.118,1.118,0,0,0-.879-.282,1.177,1.177,0,0,0-1.077.571V0H-16.5V-7.925ZM-3.53,0a2.787,2.787,0,0,1-.234-.71,2.3,2.3,0,0,1-1.9.857,2.812,2.812,0,0,1-1.9-.677,2.156,2.156,0,0,1-.784-1.7A2.216,2.216,0,0,1-7.4-4.182a4.851,4.851,0,0,1,2.769-.659h.762v-.417q0-1.091-.945-1.091a.77.77,0,0,0-.879.864H-8.167a2.216,2.216,0,0,1,.978-1.868,4.106,4.106,0,0,1,2.494-.718,3.6,3.6,0,0,1,2.4.74A2.572,2.572,0,0,1-1.4-5.3v3.508a3.593,3.593,0,0,0,.337,1.67V0ZM-5.076-1.611a1.377,1.377,0,0,0,.765-.2,1.239,1.239,0,0,0,.436-.447V-3.523h-.718q-1.289,0-1.289,1.157a.707.707,0,0,0,.227.546A.822.822,0,0,0-5.076-1.611Zm.615-9.639h2.607l-2.036,2.3H-5.9ZM2.571,0H.1V-11.25H2.571ZM6.694,0H4.219V-7.925H6.694ZM4.072-9.968a1.1,1.1,0,0,1,.381-.864,1.437,1.437,0,0,1,.989-.337,1.437,1.437,0,0,1,.989.337,1.1,1.1,0,0,1,.381.864,1.1,1.1,0,0,1-.381.864,1.437,1.437,0,0,1-.989.337A1.437,1.437,0,0,1,4.453-9.1,1.1,1.1,0,0,1,4.072-9.968Zm8.291,7.742a.57.57,0,0,0-.33-.505,5.013,5.013,0,0,0-1.252-.4,5.711,5.711,0,0,1-1.523-.538,2.552,2.552,0,0,1-.916-.809,1.933,1.933,0,0,1-.315-1.091,2.19,2.19,0,0,1,.9-1.8,3.711,3.711,0,0,1,2.358-.707,4.112,4.112,0,0,1,2.52.71,2.222,2.222,0,0,1,.952,1.868H12.283q0-.952-1-.952a1,1,0,0,0-.652.216.669.669,0,0,0-.264.538.614.614,0,0,0,.322.535,3.045,3.045,0,0,0,1.029.337,8.893,8.893,0,0,1,1.241.315,2.255,2.255,0,0,1,1.787,2.2,2.075,2.075,0,0,1-.963,1.765,4.224,4.224,0,0,1-2.494.681A4.31,4.31,0,0,1,9.47-.22a3.037,3.037,0,0,1-1.245-1,2.256,2.256,0,0,1-.447-1.326h2.307a.954.954,0,0,0,.366.8,1.506,1.506,0,0,0,.9.253,1.185,1.185,0,0,0,.758-.205A.656.656,0,0,0,12.363-2.227ZM18.5,0H16.025V-7.925H18.5ZM15.879-9.968a1.1,1.1,0,0,1,.381-.864,1.437,1.437,0,0,1,.989-.337,1.437,1.437,0,0,1,.989.337,1.1,1.1,0,0,1,.381.864,1.1,1.1,0,0,1-.381.864,1.437,1.437,0,0,1-.989.337A1.437,1.437,0,0,1,16.26-9.1,1.1,1.1,0,0,1,15.879-9.968ZM24.17-2.227a.57.57,0,0,0-.33-.505,5.013,5.013,0,0,0-1.252-.4,5.711,5.711,0,0,1-1.523-.538,2.552,2.552,0,0,1-.916-.809,1.933,1.933,0,0,1-.315-1.091,2.19,2.19,0,0,1,.9-1.8,3.711,3.711,0,0,1,2.358-.707,4.112,4.112,0,0,1,2.52.71,2.222,2.222,0,0,1,.952,1.868H24.089q0-.952-1-.952a1,1,0,0,0-.652.216.669.669,0,0,0-.264.538.614.614,0,0,0,.322.535,3.045,3.045,0,0,0,1.029.337,8.893,8.893,0,0,1,1.241.315A2.255,2.255,0,0,1,26.55-2.3a2.075,2.075,0,0,1-.963,1.765,4.224,4.224,0,0,1-2.494.681A4.31,4.31,0,0,1,21.277-.22a3.037,3.037,0,0,1-1.245-1,2.256,2.256,0,0,1-.447-1.326h2.307a.954.954,0,0,0,.366.8,1.506,1.506,0,0,0,.9.253,1.185,1.185,0,0,0,.758-.205A.656.656,0,0,0,24.17-2.227Z" transform="matrix(0.53, 0.848, -0.848, 0.53, 1092.164, 471.939)" fill="#00104e"/>
    <path id="Trazado_4997" data-name="Trazado 4997" d="M-22.471,0V-10.664h3.435a5.053,5.053,0,0,1,2.542.641,4.5,4.5,0,0,1,1.761,1.809A5.462,5.462,0,0,1-14.092-5.6V-5.1a5.494,5.494,0,0,1-.619,2.626A4.524,4.524,0,0,1-16.454-.663,4.942,4.942,0,0,1-18.962,0ZM-19.9-8.679v6.7h.894a2,2,0,0,0,1.7-.787,3.858,3.858,0,0,0,.593-2.34v-.461A3.827,3.827,0,0,0-17.307-7.9a2.035,2.035,0,0,0-1.729-.784ZM-10.283,0h-2.476V-7.925h2.476Zm-2.622-9.968a1.1,1.1,0,0,1,.381-.864,1.437,1.437,0,0,1,.989-.337,1.437,1.437,0,0,1,.989.337,1.1,1.1,0,0,1,.381.864,1.1,1.1,0,0,1-.381.864,1.437,1.437,0,0,1-.989.337,1.437,1.437,0,0,1-.989-.337A1.1,1.1,0,0,1-12.905-9.968Zm8.291,7.742a.57.57,0,0,0-.33-.505,5.013,5.013,0,0,0-1.252-.4A5.711,5.711,0,0,1-7.72-3.666a2.552,2.552,0,0,1-.916-.809A1.933,1.933,0,0,1-8.95-5.566a2.19,2.19,0,0,1,.9-1.8,3.711,3.711,0,0,1,2.358-.707,4.112,4.112,0,0,1,2.52.71,2.222,2.222,0,0,1,.952,1.868H-4.695q0-.952-1-.952a1,1,0,0,0-.652.216.669.669,0,0,0-.264.538.614.614,0,0,0,.322.535,3.045,3.045,0,0,0,1.029.337A8.893,8.893,0,0,1-4.021-4.5,2.255,2.255,0,0,1-2.234-2.3,2.075,2.075,0,0,1-3.2-.535,4.224,4.224,0,0,1-5.691.146,4.31,4.31,0,0,1-7.507-.22a3.037,3.037,0,0,1-1.245-1A2.256,2.256,0,0,1-9.2-2.542h2.307a.954.954,0,0,0,.366.8,1.506,1.506,0,0,0,.9.253,1.185,1.185,0,0,0,.758-.205A.656.656,0,0,0-4.614-2.227ZM2.754.146A4.074,4.074,0,0,1-.2-.941,3.756,3.756,0,0,1-1.326-3.772v-.205a4.867,4.867,0,0,1,.45-2.146A3.3,3.3,0,0,1,.439-7.562,3.969,3.969,0,0,1,2.49-8.071,3.43,3.43,0,0,1,5.127-7.035a4.073,4.073,0,0,1,.967,2.889v.959H1.187a1.779,1.779,0,0,0,.579,1.047,1.722,1.722,0,0,0,1.157.381,2.218,2.218,0,0,0,1.831-.82L5.881-1.245A3.153,3.153,0,0,1,4.574-.231,4.418,4.418,0,0,1,2.754.146ZM2.476-6.167q-1.084,0-1.289,1.436h2.49v-.19a1.223,1.223,0,0,0-.3-.919A1.2,1.2,0,0,0,2.476-6.167ZM9.353-7.925l.081.93A2.687,2.687,0,0,1,11.7-8.071a2.261,2.261,0,0,1,1.849.74A3.522,3.522,0,0,1,14.18-5.1V0H11.7V-5a1.337,1.337,0,0,0-.242-.883,1.118,1.118,0,0,0-.879-.282A1.177,1.177,0,0,0,9.507-5.6V0H7.039V-7.925Zm4.094-3.267a2.135,2.135,0,0,1-.487,1.417,1.511,1.511,0,0,1-1.2.582A2.377,2.377,0,0,1,10.679-9.5a2.246,2.246,0,0,0-.959-.308.55.55,0,0,0-.4.161.669.669,0,0,0-.165.5l-1.37-.073a2.147,2.147,0,0,1,.487-1.406,1.494,1.494,0,0,1,1.2-.593,2.5,2.5,0,0,1,.959.267,5.93,5.93,0,0,0,.751.3,1.468,1.468,0,0,0,.333.037.562.562,0,0,0,.4-.161.66.66,0,0,0,.168-.5Zm1.787,7.156A4.677,4.677,0,0,1,15.7-6.149a3.3,3.3,0,0,1,1.326-1.425,3.993,3.993,0,0,1,2.029-.5,3.644,3.644,0,0,1,2.805,1.1,4.23,4.23,0,0,1,1.025,3v.088A4.1,4.1,0,0,1,21.852-.941,3.654,3.654,0,0,1,19.065.146,3.7,3.7,0,0,1,16.348-.868a3.968,3.968,0,0,1-1.106-2.75Zm2.468.154a2.949,2.949,0,0,0,.344,1.611,1.147,1.147,0,0,0,1.018.513q1.318,0,1.348-2.029v-.249q0-2.131-1.362-2.131-1.238,0-1.34,1.838Z" transform="translate(1065.217 603.445) rotate(-33)" fill="#00104e"/>
    <path id="Trazado_4995" data-name="Trazado 4995" d="M-51.273,0h-2.563V-10.664h2.563Zm4.006-7.925.081.93a2.725,2.725,0,0,1,2.263-1.077,2.006,2.006,0,0,1,2.029,1.194,2.637,2.637,0,0,1,2.329-1.194q2.41,0,2.476,2.915V0h-2.476V-5a1.511,1.511,0,0,0-.205-.886.873.873,0,0,0-.747-.278,1.169,1.169,0,0,0-1.091.652l.007.1V0h-2.476V-4.988a1.588,1.588,0,0,0-.2-.9.87.87,0,0,0-.754-.278,1.184,1.184,0,0,0-1.084.652V0h-2.468V-7.925ZM-29.323-3.9a4.779,4.779,0,0,1-.831,2.948A2.665,2.665,0,0,1-32.4.146a2.285,2.285,0,0,1-1.794-.8v3.7h-2.468V-7.925h2.307l.073.732a2.285,2.285,0,0,1,1.868-.879,2.687,2.687,0,0,1,2.278,1.08,4.838,4.838,0,0,1,.813,2.97Zm-2.468-.154q0-2.109-1.23-2.109a1.162,1.162,0,0,0-1.172.63v3.12a1.2,1.2,0,0,0,1.187.659q1.179,0,1.216-2.036ZM-25.631,0h-2.476V-11.25h2.476Zm5.354.146A4.074,4.074,0,0,1-23.229-.941a3.756,3.756,0,0,1-1.128-2.831v-.205a4.867,4.867,0,0,1,.45-2.146,3.3,3.3,0,0,1,1.315-1.439,3.969,3.969,0,0,1,2.051-.509A3.43,3.43,0,0,1-17.9-7.035a4.073,4.073,0,0,1,.967,2.889v.959h-4.907a1.779,1.779,0,0,0,.579,1.047,1.722,1.722,0,0,0,1.157.381,2.218,2.218,0,0,0,1.831-.82l1.128,1.333A3.153,3.153,0,0,1-18.457-.231,4.418,4.418,0,0,1-20.277.146Zm-.278-6.313q-1.084,0-1.289,1.436h2.49v-.19a1.223,1.223,0,0,0-.3-.919A1.2,1.2,0,0,0-20.555-6.167Zm6.943-1.758.081.93a2.725,2.725,0,0,1,2.263-1.077A2.006,2.006,0,0,1-9.24-6.877,2.637,2.637,0,0,1-6.91-8.071q2.41,0,2.476,2.915V0H-6.91V-5a1.511,1.511,0,0,0-.205-.886.873.873,0,0,0-.747-.278,1.169,1.169,0,0,0-1.091.652l.007.1V0h-2.476V-4.988a1.588,1.588,0,0,0-.2-.9.87.87,0,0,0-.754-.278,1.184,1.184,0,0,0-1.084.652V0h-2.468V-7.925ZM.809.146A4.074,4.074,0,0,1-2.142-.941,3.756,3.756,0,0,1-3.27-3.772v-.205a4.867,4.867,0,0,1,.45-2.146A3.3,3.3,0,0,1-1.505-7.562,3.969,3.969,0,0,1,.546-8.071,3.43,3.43,0,0,1,3.182-7.035a4.073,4.073,0,0,1,.967,2.889v.959H-.758A1.779,1.779,0,0,0-.179-2.139a1.722,1.722,0,0,0,1.157.381,2.218,2.218,0,0,0,1.831-.82L3.937-1.245A3.153,3.153,0,0,1,2.629-.231,4.418,4.418,0,0,1,.809.146ZM.531-6.167q-1.084,0-1.289,1.436h2.49v-.19a1.223,1.223,0,0,0-.3-.919A1.2,1.2,0,0,0,.531-6.167ZM7.408-7.925l.081.93A2.687,2.687,0,0,1,9.752-8.071a2.261,2.261,0,0,1,1.849.74A3.522,3.522,0,0,1,12.235-5.1V0H9.76V-5a1.337,1.337,0,0,0-.242-.883,1.118,1.118,0,0,0-.879-.282A1.177,1.177,0,0,0,7.562-5.6V0H5.094V-7.925ZM16.476-9.9v1.97h1.3v1.714h-1.3v3.625a.926.926,0,0,0,.161.623.864.864,0,0,0,.637.176,3.621,3.621,0,0,0,.615-.044V-.066A4.555,4.555,0,0,1,16.5.146a2.586,2.586,0,0,1-1.882-.6,2.462,2.462,0,0,1-.608-1.824V-6.211H13V-7.925h1.011V-9.9ZM23.214,0a2.787,2.787,0,0,1-.234-.71,2.3,2.3,0,0,1-1.9.857,2.812,2.812,0,0,1-1.9-.677,2.156,2.156,0,0,1-.784-1.7,2.216,2.216,0,0,1,.952-1.948,4.851,4.851,0,0,1,2.769-.659h.762v-.417q0-1.091-.945-1.091a.77.77,0,0,0-.879.864H18.578a2.216,2.216,0,0,1,.978-1.868,4.106,4.106,0,0,1,2.494-.718,3.6,3.6,0,0,1,2.4.74,2.572,2.572,0,0,1,.9,2.029v3.508a3.593,3.593,0,0,0,.337,1.67V0ZM21.669-1.611a1.377,1.377,0,0,0,.765-.2,1.239,1.239,0,0,0,.436-.447V-3.523h-.718q-1.289,0-1.289,1.157a.707.707,0,0,0,.227.546A.822.822,0,0,0,21.669-1.611Zm8.394-.146a1.1,1.1,0,0,0,.806-.282,1.034,1.034,0,0,0,.278-.787h2.314a2.74,2.74,0,0,1-.934,2.139,3.474,3.474,0,0,1-2.406.835A3.517,3.517,0,0,1,27.4-.937a4.271,4.271,0,0,1-1-3v-.1a4.827,4.827,0,0,1,.443-2.12,3.226,3.226,0,0,1,1.278-1.414A3.811,3.811,0,0,1,30.1-8.071a3.43,3.43,0,0,1,2.454.857,3.039,3.039,0,0,1,.908,2.322H31.146a1.355,1.355,0,0,0-.3-.945,1.037,1.037,0,0,0-.806-.33q-.959,0-1.121,1.223a8.631,8.631,0,0,0-.051,1.069,3.39,3.39,0,0,0,.286,1.655A.989.989,0,0,0,30.062-1.758ZM37.108,0H34.633V-7.925h2.476ZM34.486-9.968a1.1,1.1,0,0,1,.381-.864,1.437,1.437,0,0,1,.989-.337,1.437,1.437,0,0,1,.989.337,1.1,1.1,0,0,1,.381.864,1.1,1.1,0,0,1-.381.864,1.437,1.437,0,0,1-.989.337,1.437,1.437,0,0,1-.989-.337A1.1,1.1,0,0,1,34.486-9.968Zm3.831,5.933a4.677,4.677,0,0,1,.461-2.113A3.3,3.3,0,0,1,40.1-7.573a3.993,3.993,0,0,1,2.029-.5,3.644,3.644,0,0,1,2.805,1.1,4.23,4.23,0,0,1,1.025,3v.088A4.1,4.1,0,0,1,44.934-.941,3.654,3.654,0,0,1,42.147.146,3.7,3.7,0,0,1,39.43-.868a3.968,3.968,0,0,1-1.106-2.75Zm2.468.154a2.949,2.949,0,0,0,.344,1.611,1.147,1.147,0,0,0,1.018.513q1.318,0,1.348-2.029v-.249q0-2.131-1.362-2.131-1.238,0-1.34,1.838Zm1.685-7.368h2.607l-2.036,2.3H41.027Zm6.848,3.325.081.93a2.687,2.687,0,0,1,2.263-1.077,2.261,2.261,0,0,1,1.849.74A3.522,3.522,0,0,1,54.144-5.1V0H51.669V-5a1.337,1.337,0,0,0-.242-.883,1.118,1.118,0,0,0-.879-.282,1.177,1.177,0,0,0-1.077.571V0H47V-7.925Z" transform="matrix(0.559, 0.829, -0.829, 0.559, 927.373, 571.493)" fill="#00104e"/>
  </g>
</svg>
